<?xml version="1.0" encoding="UTF-8" standalone="no"?>
<svg
   viewBox="0 0 1900 2298"
   version="1.1"
   id="svg911"
   sodipodi:docname="Wappen_Uri_alt.svg"
   inkscape:version="1.1.2 (0a00cf5339, 2022-02-04)"
   xmlns:inkscape="http://www.inkscape.org/namespaces/inkscape"
   xmlns:sodipodi="http://sodipodi.sourceforge.net/DTD/sodipodi-0.dtd"
   xmlns="http://www.w3.org/2000/svg"
   xmlns:svg="http://www.w3.org/2000/svg"
   xmlns:rdf="http://www.w3.org/1999/02/22-rdf-syntax-ns#"
   xmlns:cc="http://creativecommons.org/ns#"
   xmlns:dc="http://purl.org/dc/elements/1.1/">
  <defs
     id="defs915" />
  <sodipodi:namedview
     id="namedview913"
     pagecolor="#ffffff"
     bordercolor="#666666"
     borderopacity="1.0"
     inkscape:pageshadow="2"
     inkscape:pageopacity="0.0"
     inkscape:pagecheckerboard="0"
     showgrid="false"
     inkscape:zoom="0.12031277"
     inkscape:cx="-772.98528"
     inkscape:cy="1147.0104"
     inkscape:window-width="1551"
     inkscape:window-height="991"
     inkscape:window-x="26"
     inkscape:window-y="23"
     inkscape:window-maximized="0"
     inkscape:current-layer="svg911" />
  <title
     id="title847">Wappen Uri</title>
  <path
     d="m949.3 7.079h939.7v1381c0 497-420 899-939 899-518.6 0-939.1-402-939.1-899l0.04-1381 938.4 0.079z"
     fill="#ffd72e"
     id="path849" />
  <path
     d="M 949.3,7 H 1889 v 1381 c 0,497 -420,899 -939,899 C 431.4,2287 10.9,1885 10.9,1388 L 10.94,7 949.34,7.079 Z"
     stroke="#000000"
     stroke-width="14.2"
     fill="none"
     id="path909"
     sodipodi:nodetypes="ccsscccc" />
  <path
     style="fill:#ffffff;fill-opacity:1;stroke:none;stroke-width:16.5198px;stroke-linecap:butt;stroke-linejoin:miter;stroke-opacity:1"
     d="m 619.88387,1030.0659 c 0,0 25.27621,86.3326 65.31994,105.347 40.0437,19.0143 56.35001,15.0549 86.66213,-6.2283 30.31212,-21.2833 26.70898,-30.8556 30.83694,-48.4669 -49.42952,-7.3135 -182.81901,-50.6518 -182.81901,-50.6518"
     id="path1184"
     sodipodi:nodetypes="czzcc" />
  <path
     style="fill:#ffffff;fill-opacity:1;stroke:none;stroke-width:16.5198px;stroke-linecap:butt;stroke-linejoin:miter;stroke-opacity:1"
     d="m 1276.4472,1031.4582 c 0,0 -25.2762,86.3327 -65.3199,105.347 -40.0438,19.0143 -56.3501,15.0549 -86.6622,-6.2283 -30.3121,-21.2833 -26.709,-30.8556 -30.8369,-48.4669 49.4295,-7.3135 182.819,-50.6518 182.819,-50.6518"
     id="path1184-3"
     sodipodi:nodetypes="czzcc" />
  <path
     d="m 1329.1335,78.517086 c -22.0264,46.255414 -11.0132,99.118744 22.0264,134.360964 107.9293,90.31699 213.656,202.65157 202.6428,354.63364 -2.2027,112.33457 -68.2818,198.23748 -123.3478,290.74831 0,6.60791 6.6079,8.81055 11.0044,8.81055 63.8853,-24.22902 163.0041,-20.24665 218.07,19.40084 l 13.2071,2.62555 c -8.8018,48.44924 -46.2466,94.70465 -92.5021,114.52836 -48.458,24.2291 -107.9293,19.8326 -165.1979,19.8326 -8.8105,35.2422 -11.0132,74.8897 -28.6343,105.7267 -24.229,68.2818 -81.4976,110.1143 -132.1583,162.9864 -44.0616,88.1056 -96.9161,174.0173 -83.7003,284.1492 39.6387,63.8677 81.4977,149.7794 37.4449,224.6515 h -6.6079 c -26.4317,-28.6255 -49.3722,-44.284 -77.3677,-66.0791 6.6079,-17.6123 -13.337,-36.6696 -28.359,-39.6387 -26.4316,4.4053 -17.6299,-26.4405 -26.4316,-39.6475 -33.0396,-191.6296 -79.29503,-394.2811 -15.4185,-585.9019 11.0132,2.2026 24.2202,8.8106 37.4449,8.8106 19.8149,22.0263 26.4316,57.2686 59.4712,63.8853 26.4229,4.3965 50.6607,-4.4141 70.4844,-24.229 37.4449,-35.2511 39.6475,-94.7135 92.5109,-114.5461 2.2026,-6.59907 13.2158,-11.00434 11.0132,-19.82371 -19.8238,-11.01319 -46.2555,0 -66.0792,-8.80174 -46.2554,-15.41847 -116.7399,-35.25103 -160.7926,0 -70.4845,48.45805 -63.8766,140.96005 -85.9118,215.85855 -15.40961,171.8059 26.4405,337.0038 48.4669,497.7876 -15.4273,8.8193 -39.6475,22.0264 -44.0528,41.8589 -4.4141,24.2202 17.6211,39.6475 28.6255,52.8545 19.8326,35.2511 68.2906,57.2775 74.8986,96.925 -30.837,15.4184 -68.2818,17.6123 -101.3214,22.0263 L 1003.143,1851.65 c 17.6211,-13.2246 46.2554,-6.6255 63.8765,-19.8325 0,-4.4053 -4.4052,-8.8194 -8.8105,-6.5991 -72.6871,11.0132 -151.9821,11.0132 -224.66917,0 l -4.40528,6.5991 c 17.6123,11.0132 46.25541,11.0132 70.48444,15.4273 0,17.6123 -8.81056,37.4448 -11.0132,55.0659 -37.44485,0 -74.89852,-8.8193 -107.9381,-22.0263 13.22464,-44.0528 59.48005,-61.6739 77.10116,-103.5329 8.81056,-6.5991 24.22903,-11.0132 28.6343,-24.2202 4.40528,-15.4185 2.20264,-33.0396 -13.21583,-44.0528 l -33.03958,-22.0264 c 33.03958,-226.8894 96.9161,-471.3734 -8.81055,-680.6241 -30.83694,-46.24662 -83.70908,-57.26863 -134.36096,-48.44926 -41.85014,8.81055 -83.70027,26.42285 -127.75305,19.82375 6.60792,24.22021 28.6343,44.05281 50.66069,52.86331 19.82375,44.0528 39.6475,105.7179 96.9161,114.5284 22.02639,4.4053 39.6475,-4.3965 55.06597,-15.4096 l 30.83694,-48.4669 41.85014,-6.5991 c 63.87652,189.4269 13.21583,411.8846 -17.62111,601.3204 l -4.40528,6.6079 c 2.20264,0 2.20264,2.1938 2.20264,4.4052 -15.41847,8.8018 -35.24222,13.2071 -44.06158,33.0396 -4.39647,6.6079 0,15.4009 2.21145,19.815 -24.22903,24.2378 -57.26861,35.251 -81.49764,66.0791 -15.41847,-4.4141 -15.41847,-24.2202 -19.83256,-35.2334 -26.42285,-77.0923 28.64312,-136.5724 48.46687,-200.4577 4.40527,-114.5196 -44.05278,-220.2639 -116.73985,-306.1492 -74.88972,-61.6739 -121.14513,-140.9689 -129.9645,-233.4797 -22.01757,-6.6079 -50.65188,2.2027 -74.8809,-2.2114 -57.27742,-2.1939 -114.53722,-13.2159 -149.77943,-61.66511 -19.82375,-19.83256 -26.43167,-46.25541 -33.03959,-72.68707 63.87653,-15.41848 127.75305,-59.47125 198.23749,-28.63431 13.21583,2.20264 28.6343,15.40966 41.85013,2.20264 -11.01319,-33.03958 -39.64749,-59.48005 -55.06596,-90.30819 -66.07917,-92.51963 -92.51964,-229.07442 -48.45806,-341.40899 28.63431,-94.72228 121.13632,-158.5988 185.02165,-226.8806 28.63431,-33.03958 33.03959,-85.90291 15.41848,-123.347768 6.60791,-2.202639 15.41847,4.405277 22.02638,11.013193 30.82813,35.242215 44.05278,85.911725 28.63431,132.167135 -35.24222,90.29937 -147.5768,147.56798 -147.5768,253.30345 2.20264,116.73104 66.07916,207.04804 138.76624,295.15358 13.21583,2.20264 17.62111,-11.01319 28.6343,-13.22464 35.24222,-13.21583 74.88972,-4.39647 101.32138,15.42728 39.6475,-17.62111 94.71347,-15.42728 127.75305,11.0132 46.25541,-26.44048 116.73104,-30.83695 162.99527,-2.20264 33.0396,-19.82375 81.4976,-33.03958 121.1451,-13.22464 17.6211,15.42728 30.8282,-13.20703 48.4581,-15.40967 30.8369,-11.022 63.8765,2.20264 92.5108,11.00439 57.2686,-55.06597 92.5108,-125.5416 121.1363,-196.03485 15.4273,-55.06596 26.4405,-129.95568 -8.8017,-178.40492 -41.8502,-77.10117 -134.361,-125.55041 -127.7531,-220.27268 0,-39.6475 19.8238,-79.294995 57.2686,-96.916104 v 0"
     style="fill:#000000;fill-opacity:1;fill-rule:nonzero;stroke:none;stroke-width:2.20264"
     id="path16" />
  <path
     d="m 472.30708,948.55937 c 4.40528,15.42728 -6.60792,28.64312 -19.82375,30.83694 -66.07916,17.62992 -134.36977,2.20264 -182.81901,-46.2466 l -4.40528,-13.21583 c 33.03958,-4.41409 61.67388,-17.62992 92.51083,-26.43166 13.21583,-2.20264 28.6343,0 44.05277,2.19382 28.6343,6.60792 59.47125,24.23784 70.48444,52.86333 v 0"
     style="fill:#fcd205;fill-opacity:1;fill-rule:nonzero;stroke:none;stroke-width:2.20264"
     id="path18" />
  <path
     d="m 1628.6924,915.51979 c -15.4185,37.45367 -57.2686,52.86333 -94.7135,63.87652 -37.4448,6.61673 -88.1055,8.81937 -110.1319,-26.42285 -8.8106,-19.82375 11.0132,-33.03958 24.229,-44.05277 57.2686,-30.83695 123.3478,-6.61673 180.6164,6.5991 v 0"
     style="fill:#fcd205;fill-opacity:1;fill-rule:nonzero;stroke:none;stroke-width:2.20264"
     id="path20" />
  <path
     d="m 1608.8686,922.13652 c -22.0263,37.44486 -70.4844,44.05277 -112.3345,50.65188 -22.0352,-4.40528 -48.4581,-2.20264 -59.4713,-26.43167 -2.2026,-17.62111 19.8238,-24.22021 30.837,-33.03958 46.2554,-17.62111 96.9161,0 140.9688,8.81937 v 0"
     style="fill:#231f20;fill-opacity:1;fill-rule:nonzero;stroke:none;stroke-width:2.20264"
     id="path22" />
  <path
     d="m 461.29389,950.76201 c -15.41848,28.6343 -55.06597,22.02639 -85.90291,19.82375 -33.03958,-4.39647 -63.87653,-13.20702 -88.10555,-39.63869 52.86333,-26.44047 136.5636,-39.64749 174.00846,19.81494 v 0"
     style="fill:#231f20;fill-opacity:1;fill-rule:nonzero;stroke:none;stroke-width:2.20264"
     id="path24" />
  <path
     d="m 1298.2966,994.81479 c -4.4053,13.22461 -24.229,19.82371 -37.4449,26.44051 -22.0264,11.0132 -48.458,11.0132 -68.2818,26.4228 8.8106,11.022 15.4185,30.837 6.608,44.0616 -8.8106,15.4185 -28.6344,17.6211 -44.0528,13.207 -19.8238,-8.8017 -22.0264,-30.8281 -19.8238,-48.4492 -24.2378,0 -59.4712,19.8237 -74.8897,-8.8194 0,-35.2422 35.2422,-59.46242 61.6739,-72.67825 61.6739,-26.44048 114.5372,22.02638 176.2111,19.81494 v 0"
     style="fill:#231f20;fill-opacity:1;fill-rule:nonzero;stroke:none;stroke-width:2.20264"
     id="path26" />
  <path
     d="m 820.32399,1016.8412 c 11.0132,8.8193 15.41847,24.2378 13.21584,37.4536 -24.22903,19.8238 -52.87214,-2.2026 -77.09236,0 4.40528,15.4097 6.60792,30.837 0,44.0528 -11.01319,13.207 -30.83694,11.0132 -44.05277,6.5991 -15.41847,-8.8017 -22.02639,-26.4316 -15.41847,-44.0528 0,-6.5991 11.01319,-11.0131 8.81055,-17.6123 -39.6475,-13.2158 -88.10555,-15.4272 -110.13193,-52.86328 66.07916,4.39647 125.5504,-44.06159 189.42692,-8.81937 l 35.24222,35.24225 v 0"
     style="fill:#231f20;fill-opacity:1;fill-rule:nonzero;stroke:none;stroke-width:2.20264"
     id="path28" />
  <path
     d="m 856.51996,1744.9586 c -4.40528,61.6739 -88.10555,85.8941 -94.70466,147.5856 -15.42728,68.273 15.42728,140.9513 77.09236,180.5988 70.49325,37.4449 171.79704,39.6475 237.87614,-6.6079 57.2774,-44.0528 79.3038,-110.132 66.0792,-180.6164 -15.4185,-57.2598 -92.5108,-83.7003 -96.9073,-143.1715 6.6167,-13.207 19.8149,-15.4009 33.0396,-15.4009 15.4096,-2.2202 22.0264,15.4009 35.2422,17.6123 61.6651,35.2334 110.1319,99.1188 121.1451,167.3918 19.8238,94.7134 -24.229,187.2243 -103.5328,240.0973 -88.1056,63.8679 -226.86298,68.2732 -323.77909,19.8151 -92.51082,-37.4283 -147.57679,-132.1594 -145.37415,-224.6702 4.39647,-74.8809 37.43605,-143.1539 103.51521,-178.4137 28.64311,-15.4185 59.48005,-70.4845 90.30819,-24.2203 v 0"
     style="fill:#e7423f;fill-opacity:1;fill-rule:nonzero;stroke:none;stroke-width:2.20264"
     id="path30" />
  <path
     d="m 985.5219,1847.2448 c 15.4185,63.8589 48.458,136.5636 13.21583,198.2375 -19.83256,19.8061 -50.66069,26.4316 -77.09236,13.207 -15.41847,-6.6079 -28.6343,-19.815 -30.83694,-37.4537 -8.81055,-59.4536 8.81056,-118.9249 26.43167,-173.9908 h 68.2818 v 0"
     style="fill:#e7423f;fill-opacity:1;fill-rule:nonzero;stroke:none;stroke-width:2.20264"
     id="path32" />
  <metadata
     id="metadata976">
    <rdf:RDF>
      <cc:Work
         rdf:about="">
        <dc:title>Wappen Uri</dc:title>
      </cc:Work>
    </rdf:RDF>
  </metadata>
</svg>
